<svg width="31" height="31" viewBox="0 0 31 31" fill="none" xmlns="http://www.w3.org/2000/svg">
<path id="Vector" d="M0.270834 2.26044C0.270834 1.55283 0.844475 0.979187 1.55208 0.979187H2.50578C4.1295 0.979187 5.10169 2.07079 5.65764 3.08554C6.02819 3.76196 6.29626 4.54649 6.50594 5.25677C6.56273 5.25231 6.62027 5.25002 6.67845 5.25002H28.028C29.4463 5.25002 30.4704 6.60715 30.0816 7.97105L26.9591 18.9199C26.3837 20.938 24.5398 22.3296 22.4414 22.3296H12.28C10.1643 22.3296 8.30957 20.9153 7.74963 18.875L6.45046 14.141L4.30035 6.88281L4.29686 6.8701C4.03088 5.90006 3.78124 4.99386 3.41029 4.31676C3.05005 3.65922 2.7629 3.54169 2.50578 3.54169H1.55208C0.844475 3.54169 0.270834 2.96805 0.270834 2.26044ZM8.93692 13.5189L10.2207 18.1968C10.4753 19.1243 11.3183 19.7671 12.28 19.7671H22.4414C23.3952 19.7671 24.2333 19.1345 24.495 18.2173L27.462 7.81252H7.25021L8.91339 13.4275C8.92241 13.4579 8.93024 13.4883 8.93692 13.5189ZM14.7917 27.4584C14.7917 29.3454 13.262 30.875 11.375 30.875C9.48803 30.875 7.95833 29.3454 7.95833 27.4584C7.95833 25.5713 9.48803 24.0417 11.375 24.0417C13.262 24.0417 14.7917 25.5713 14.7917 27.4584ZM12.2292 27.4584C12.2292 26.9867 11.8467 26.6042 11.375 26.6042C10.9033 26.6042 10.5208 26.9867 10.5208 27.4584C10.5208 27.93 10.9033 28.3125 11.375 28.3125C11.8467 28.3125 12.2292 27.93 12.2292 27.4584ZM26.75 27.4584C26.75 29.3454 25.2204 30.875 23.3333 30.875C21.4463 30.875 19.9167 29.3454 19.9167 27.4584C19.9167 25.5713 21.4463 24.0417 23.3333 24.0417C25.2204 24.0417 26.75 25.5713 26.75 27.4584ZM24.1875 27.4584C24.1875 26.9867 23.805 26.6042 23.3333 26.6042C22.8617 26.6042 22.4792 26.9867 22.4792 27.4584C22.4792 27.93 22.8617 28.3125 23.3333 28.3125C23.805 28.3125 24.1875 27.93 24.1875 27.4584Z" fill="#FBF5F5"/>
</svg>
