<svg width="40" height="35" viewBox="0 0 40 35" fill="none" xmlns="http://www.w3.org/2000/svg">
<path d="M36.4394 1.31301C37.0252 0.711418 37.9748 0.711418 38.5606 1.31301C39.1464 1.91461 39.1464 2.89001 38.5606 3.4916L35.6214 6.5103L38.5606 9.52899C39.1464 10.1306 39.1464 11.106 38.5606 11.7076C37.9748 12.3092 37.0252 12.3092 36.4394 11.7076L32.4394 7.59959C31.8536 6.998 31.8536 6.0226 32.4394 5.421L36.4394 1.31301ZM24.5 4.9698C25.3284 4.9698 26 5.65951 26 6.5103C26 7.36108 25.3284 8.05079 24.5 8.05079H1.5C0.67158 8.05079 0 7.36108 0 6.5103C0 5.65951 0.67158 4.9698 1.5 4.9698H24.5ZM38.5 31.6717C39.3284 31.6717 40 32.3615 40 33.2122C40 34.063 39.3284 34.7527 38.5 34.7527H1.5C0.67158 34.7527 0 34.063 0 33.2122C0 32.3615 0.67158 31.6717 1.5 31.6717H38.5ZM40 19.8613C40 19.0105 39.3284 18.3208 38.5 18.3208H1.5C0.67158 18.3208 0 19.0105 0 19.8613C0 20.712 0.67158 21.4018 1.5 21.4018H38.5C39.3284 21.4018 40 20.712 40 19.8613Z" fill="#212121"/>
</svg>
