<svg width="55" height="55" viewBox="0 0 55 55" fill="none" xmlns="http://www.w3.org/2000/svg">
<g id="Person Circle / undefined">
<path id="Vector" d="M27.5 50.4167C14.8435 50.4167 4.58333 40.1565 4.58333 27.5C4.58333 14.8435 14.8435 4.58337 27.5 4.58337C40.1564 4.58337 50.4167 14.8435 50.4167 27.5C50.4167 40.1565 40.1564 50.4167 27.5 50.4167ZM38.9583 30.9375C38.9583 29.0391 37.4192 27.5 35.5208 27.5H19.4792C17.5807 27.5 16.0417 29.0391 16.0417 30.9375V32.0834C16.0417 36.6012 20.303 41.25 27.5 41.25C34.697 41.25 38.9583 36.6012 38.9583 32.0834V30.9375ZM33.8021 18.9063C33.8021 15.4258 30.9806 12.6042 27.5 12.6042C24.0194 12.6042 21.1979 15.4258 21.1979 18.9063C21.1979 22.3868 24.0194 25.2084 27.5 25.2084C30.9806 25.2084 33.8021 22.3868 33.8021 18.9063Z" fill="white"/>
</g>
</svg>
