<svg width="37" height="37" viewBox="0 0 37 37" fill="none" xmlns="http://www.w3.org/2000/svg">
<g id="Search / undefined">
<path id="Vector" d="M15.4166 4.23956C21.5896 4.23956 26.5937 9.24372 26.5937 15.4166C26.5937 18.0867 25.6575 20.5379 24.0955 22.4602L31.6509 30.0158C32.1024 30.4673 32.1024 31.1993 31.6509 31.6509C31.2405 32.0614 30.5981 32.0987 30.1454 31.7628L30.0158 31.6509L22.4602 24.0955C20.5379 25.6575 18.0867 26.5937 15.4166 26.5937C9.24372 26.5937 4.23956 21.5896 4.23956 15.4166C4.23956 9.24372 9.24372 4.23956 15.4166 4.23956ZM15.4166 6.55206C10.5209 6.55206 6.55206 10.5209 6.55206 15.4166C6.55206 20.3124 10.5209 24.2812 15.4166 24.2812C20.3124 24.2812 24.2812 20.3124 24.2812 15.4166C24.2812 10.5209 20.3124 6.55206 15.4166 6.55206Z" fill="#212121"/>
</g>
</svg>
